<?xml version="1.0" encoding="UTF-8"?>
<svg id="_レイヤー_2" data-name="レイヤー 2" xmlns="http://www.w3.org/2000/svg" viewBox="0 0 300 148.44">
  <defs>
    <style>
      .cls-1 {
        fill: #3f4043;
      }

      .cls-1, .cls-2, .cls-3 {
        stroke-width: 0px;
      }

      .cls-2 {
        fill: #009fc1;
      }

      .cls-3 {
        fill: #fff;
      }
    </style>
  </defs>
  <g id="_レイヤー_1-2" data-name="レイヤー 1">
    <g>
      <g>
        <path class="cls-2" d="m33.7,0C15.09,0,0,15.09,0,33.7v51.83h82.08c16.2,0,29.34-13.14,29.34-29.34V0H33.7Z"/>
        <path class="cls-3" d="m59.25,72.23c-2.64,2.86-6.22,4.31-10.65,4.31s-8.02-1.44-10.67-4.29c-2.64-2.84-3.98-6.75-3.98-11.62v-.36c0-3.04.59-5.78,1.77-8.16,1.18-2.39,2.9-4.27,5.11-5.58,2.21-1.31,4.81-1.97,7.72-1.97,4.15,0,7.58,1.29,10.21,3.83,2.62,2.54,4.11,6.02,4.41,10.36,0,0,0,.02.06,2.1,0,4.71-1.34,8.54-3.97,11.39Z"/>
        <path class="cls-2" d="m48.54,51.63c-1.9,0-3.33.72-4.37,2.2-1.06,1.51-1.58,3.8-1.58,7.01,0,2.81.53,4.98,1.57,6.45,1.04,1.46,2.49,2.17,4.43,2.17s3.32-.7,4.37-2.15c1.08-1.47,1.6-3.78,1.6-7.06,0-2.75-.54-4.91-1.6-6.41-1.06-1.49-2.51-2.21-4.43-2.21Z"/>
        <path class="cls-3" d="m31.71,37.99c0,.3-.14.59-.36.78-.23.2-.53.29-.83.25-.47-.06-.99-.09-1.56-.09-2.93,0-4.29,1.27-4.29,4.01v2.16h4.97c.58,0,1.06.47,1.06,1.06v4.38c0,.58-.47,1.06-1.06,1.06h-4.97v23.32c0,.58-.47,1.06-1.06,1.06h-6.56c-.58,0-1.06-.47-1.06-1.06v-23.32h-3.46c-.58,0-1.06-.47-1.06-1.06v-4.38c0-.58.47-1.06,1.06-1.06h3.46v-2.3c0-3.46,1.01-6.1,3.01-8.03,2-1.92,4.82-2.89,8.39-2.89.98,0,2.18.14,3.54.43.49.1.85.54.84,1.05l-.06,4.63Z"/>
        <path class="cls-3" d="m88.03,52.11c0,.3-.13.58-.36.77-.22.2-.52.29-.81.26-.75-.08-1.43-.12-2.03-.12-2.95,0-4.83.95-5.75,2.9v19c0,.58-.47,1.06-1.06,1.06h-6.54c-.58,0-1.06-.47-1.06-1.06v-28.76c0-.58.47-1.06,1.06-1.06h6.14c.56,0,1.02.44,1.05.99l.13,2.03c1.63-2.38,3.83-3.58,6.53-3.58.68,0,1.34.07,1.96.21.49.11.84.55.83,1.05l-.09,6.31Z"/>
      </g>
      <g>
        <path class="cls-1" d="m31.75,116.98c-2.32-2.26-6.07-4.18-11.13-5.71-2.7-.81-4.76-1.7-6.14-2.62-1.33-.9-1.98-1.97-1.98-3.27,0-1.41.55-2.52,1.69-3.39,1.14-.87,2.78-1.31,4.87-1.31s3.85.53,5.03,1.57c1.02.9,1.6,2.12,1.73,3.65.05.57.52,1.01,1.1,1.01h7.23c.3,0,.6-.13.8-.35.21-.22.32-.52.3-.82-.14-2.27-.82-4.35-2.01-6.18-1.35-2.06-3.27-3.68-5.71-4.81-2.43-1.12-5.23-1.69-8.33-1.69s-5.89.52-8.36,1.56c-2.49,1.04-4.43,2.51-5.76,4.36-1.34,1.86-2.02,4.01-2.02,6.38,0,4.62,2.44,8.19,7.47,10.91,1.8.97,4.27,1.96,7.34,2.96,3.07.99,5.12,1.9,6.29,2.79,1.11.85,1.66,2.03,1.66,3.62,0,1.45-.54,2.55-1.65,3.35-1.12.82-2.73,1.23-4.76,1.23-5.15,0-7.91-2.05-8.19-6.09-.04-.58-.52-1.03-1.1-1.03H2.88c-.3,0-.59.13-.8.35-.21.22-.32.52-.3.82.14,2.47.87,4.69,2.16,6.6,1.45,2.14,3.58,3.85,6.33,5.07,2.74,1.22,5.82,1.84,9.15,1.84,4.8,0,8.68-1.09,11.54-3.23,2.92-2.19,4.34-5.13,4.34-8.98,0-3.46-1.16-6.27-3.54-8.59Z"/>
        <path class="cls-1" d="m56.95,130.25c-.23-.21-.55-.31-.85-.28-.45.05-.95.07-1.46.07-1.11,0-1.89-.22-2.26-.63-.39-.44-.57-1.16-.57-2.23v-14.89h4.1c.61,0,1.1-.5,1.1-1.1v-4.33c0-.61-.5-1.1-1.1-1.1h-4.1v-6.37c0-.61-.5-1.1-1.1-1.1h-6.49c-.61,0-1.1.5-1.1,1.1v6.37h-3.34c-.61,0-1.1.5-1.1,1.1v4.33c0,.61.5,1.1,1.1,1.1h3.34v16.11c.12,6,3.06,8.91,9,8.91,1.49,0,2.96-.19,4.39-.57.48-.13.82-.57.82-1.07v-4.6c0-.31-.13-.61-.36-.82Z"/>
        <path class="cls-1" d="m89.05,135.22c-.58-1.42-.87-3.31-.88-5.79v-13.18c0-3.53-1.11-6.2-3.4-8.16-2.25-1.92-5.31-2.89-9.11-2.89-2.5,0-4.79.44-6.8,1.3-2.03.87-3.62,2.09-4.73,3.62-.94,1.3-1.48,2.65-1.64,4.13-.03.31.07.62.28.86.21.23.51.37.82.37h6.51c.55,0,1.01-.39,1.09-.93.12-.76.45-1.36,1.02-1.83.72-.61,1.74-.92,3.03-.92,1.46,0,2.54.39,3.2,1.16.67.79,1.01,1.86,1.01,3.19v1.45h-3.45c-4.56.02-8.1.92-10.53,2.67-2.49,1.8-3.7,4.3-3.7,7.65,0,2.74.99,4.94,3.03,6.74,2,1.76,4.56,2.66,7.6,2.66s5.51-.97,7.49-2.96c.13.64.29,1.21.5,1.71.17.42.57.69,1.02.69h6.63c.37,0,.71-.18.92-.49.21-.31.24-.69.1-1.03Zm-11.71-5.47c-.97.51-2.04.77-3.18.77s-2.07-.31-2.73-.91c-.66-.6-.98-1.35-.98-2.27l.03-.47c.24-2.62,2.33-3.96,6.21-3.96h2.75v4.87c-.46.82-1.16,1.48-2.1,1.97Z"/>
        <path class="cls-1" d="m111.88,105.39c-.62-.13-1.27-.2-1.94-.2-2.71,0-4.9,1.2-6.54,3.57l-.12-1.98c-.04-.58-.52-1.04-1.1-1.04h-6.09c-.61,0-1.1.5-1.1,1.1v28.78c0,.61.5,1.1,1.1,1.1h6.49c.61,0,1.1-.5,1.1-1.1v-19.02c.92-1.95,2.81-2.9,5.76-2.9.59,0,1.27.04,2.01.12.31.03.62-.07.85-.27.23-.21.37-.5.37-.81l.09-6.27c0-.52-.36-.98-.87-1.09Z"/>
        <path class="cls-1" d="m134.91,130.25c-.23-.21-.55-.31-.85-.28-.45.05-.95.07-1.46.07-1.11,0-1.89-.22-2.26-.63-.39-.44-.57-1.16-.57-2.23v-14.89h4.1c.61,0,1.1-.5,1.1-1.1v-4.33c0-.61-.5-1.1-1.1-1.1h-4.1v-6.37c0-.61-.5-1.1-1.1-1.1h-6.49c-.61,0-1.1.5-1.1,1.1v6.37h-3.34c-.61,0-1.1.5-1.1,1.1v4.33c0,.61.5,1.1,1.1,1.1h3.34v16.11c.12,6,3.06,8.91,9,8.91,1.49,0,2.96-.19,4.39-.57.48-.13.82-.57.82-1.07v-4.6c0-.31-.13-.61-.36-.82Z"/>
        <path class="cls-1" d="m166.2,105.76h-6.52c-.61,0-1.1.5-1.1,1.1v20.67c-.99,1.79-2.76,2.66-5.39,2.66s-4.04-1.46-4.04-4.47v-18.85c0-.61-.5-1.1-1.1-1.1h-6.49c-.61,0-1.1.5-1.1,1.1v19.12c.04,3.67.95,6.51,2.7,8.43,1.79,1.95,4.3,2.9,7.68,2.9s6.05-1.06,8.08-3.23l.12,1.65c.04.57.53,1.02,1.1,1.02h6.07c.61,0,1.1-.5,1.1-1.1v-28.78c0-.61-.5-1.1-1.1-1.1Z"/>
        <path class="cls-1" d="m199.21,109.47c-2.16-2.88-5.09-4.28-8.97-4.28-3.05,0-5.51,1.03-7.48,3.14l-.15-1.58c-.05-.57-.53-1-1.1-1h-5.97c-.61,0-1.1.5-1.1,1.1v40.48c0,.61.5,1.1,1.1,1.1h6.49c.61,0,1.1-.5,1.1-1.1v-12.8c1.89,1.86,4.24,2.77,7.16,2.77,3.75,0,6.64-1.42,8.85-4.35,2.16-2.86,3.25-6.7,3.25-11.43v-.42c0-4.91-1.07-8.83-3.18-11.64Zm-5.52,11.47c0,2.29,0,9.24-5.53,9.24-2.43,0-4.07-.91-5.02-2.79v-12.32c.92-1.82,2.54-2.7,4.97-2.7,1.82,0,3.18.71,4.13,2.17.97,1.48,1.46,3.63,1.46,6.39Z"/>
        <path class="cls-1" d="m226.77,119.27c-1.39-.51-3.13-.97-5.16-1.38-2.01-.4-3.39-.86-4.21-1.39-.76-.49-1.15-1.15-1.15-1.94,0-.87.33-1.57,1.02-2.14.69-.57,1.7-.86,2.99-.86,1.51,0,2.62.35,3.31,1.05.55.55.88,1.23,1,2.02.08.54.55.95,1.09.95h6.51c.31,0,.6-.13.81-.36.21-.23.31-.53.29-.84-.22-2.61-1.38-4.7-3.54-6.4-2.36-1.85-5.53-2.79-9.44-2.79-3.67,0-6.68.93-8.96,2.78-2.33,1.88-3.47,4.17-3.47,6.98,0,4.83,3.62,7.94,11.08,9.5,2.16.45,3.68.94,4.65,1.5.9.52,1.33,1.21,1.33,2.1s-.36,1.56-1.08,2.09c-.75.56-1.85.83-3.36.83-1.6,0-2.88-.37-3.82-1.09-.78-.6-1.24-1.41-1.42-2.46-.09-.53-.55-.92-1.09-.92h-6.11c-.31,0-.61.13-.82.36-.21.23-.31.54-.28.85.16,1.56.71,2.99,1.69,4.37,1.15,1.62,2.75,2.91,4.77,3.83,2.01.92,4.33,1.39,6.91,1.39,3.81,0,6.97-.88,9.39-2.63,2.48-1.79,3.69-4.07,3.69-6.97,0-3.99-2.23-6.84-6.63-8.45Z"/>
        <path class="cls-1" d="m241.11,132.94c-.24-.24-.56-.37-.9-.37h-2.16c-.7,0-1.27.57-1.27,1.27v2.24c-.02,1.05-.37,2.12-1.04,3.18l-.04.06c-.2.31-.25.69-.15,1.04.1.35.36.64.69.8l1.01.46c.17.08.34.11.53.11.31,0,.6-.11.83-.31.75-.65,1.39-1.44,1.9-2.35.62-1.1.94-2.22.95-3.31v-1.91c.01-.34-.12-.67-.36-.9Z"/>
        <rect class="cls-1" x="248.38" y="115.69" width="5.6" height="21.09" rx="1.27" ry="1.27"/>
        <path class="cls-1" d="m272.18,122.16c-.97-1.02-2.45-1.53-4.39-1.53s-3.42.51-4.66,1.56v-.11c-.06-.65-.62-1.17-1.28-1.17h-2.68c-.7,0-1.27.57-1.27,1.27v13.33c0,.7.57,1.27,1.27,1.27h2.88c.7,0,1.27-.57,1.27-1.27v-9.64c.57-.78,1.42-1.18,2.54-1.18.9,0,1.51.16,1.87.48.34.31.51.83.51,1.57v8.77c0,.7.57,1.27,1.27,1.27h2.88c.7,0,1.27-.57,1.27-1.27v-8.87c-.02-1.96-.52-3.47-1.49-4.48Z"/>
        <path class="cls-1" d="m290.41,130.96h-2.48c-.53,0-.99.36-1.14.89-.1.32-.29.6-.56.82-.44.35-1.02.53-1.74.53-.94,0-1.61-.29-2.05-.87-.46-.6-.69-1.65-.69-3.1v-.42c0-1.46.23-2.46.7-3.08.45-.59,1.11-.88,2.02-.88.74,0,1.31.21,1.75.63.3.29.5.64.59,1.05.13.57.61.96,1.16.96h2.48c.35,0,.69-.16.92-.45.23-.29.33-.66.27-1.03-.22-1.41-.87-2.59-1.93-3.51-1.3-1.13-3.04-1.7-5.16-1.7-2.47,0-4.36.72-5.79,2.19-1.43,1.48-2.13,3.39-2.13,5.85v.27c0,2.55.7,4.5,2.14,5.97,1.44,1.46,3.33,2.17,5.8,2.17,1.3,0,2.5-.25,3.58-.74,1.09-.49,1.96-1.2,2.6-2.11.41-.58.69-1.21.84-1.87.09-.38,0-.78-.22-1.09-.23-.31-.57-.49-.94-.49Z"/>
        <circle class="cls-1" cx="297.46" cy="134.39" r="2.54"/>
      </g>
    </g>
  </g>
</svg>